# xmcd
#
# Track frame offsets:
#	150
#	13225
#	29489
#	56820
#	79682
#	102179
#	115501
#	130351
#	154965
#	174138
#	194921
#	210070
#
# Disc length: 3072 seconds
#
# Revision: 1
# Processed by: cddbd v1.5.2PL0 Copyright (c) Steve Scherf et al.
# Submitted via: audiograbber 1.83.01
#
DISCID=9c0bfe0c
DTITLE=J. T. Lauritsen and The Buckshot Hunters - Squeezeboxing
DYEAR=2007
DGENRE=Blues
TTITLE0=The Bug
TTITLE1=Bald Headed Woman Part II
TTITLE2=Help Me Through The Day
TTITLE3=Thats How I Got To Memphis
TTITLE4=What Am I Living For
TTITLE5=Time 4 Bed
TTITLE6=Why I Feel So Blue
TTITLE7=10 PM Singapore Time
TTITLE8=True Love
TTITLE9=I Just Love You Like I Said Part II
TTITLE10=Tell Me Whats The Reason
TTITLE11=It's Over
EXTD=
EXTT0=
EXTT1=
EXTT2=
EXTT3=
EXTT4=
EXTT5=
EXTT6=
EXTT7=
EXTT8=
EXTT9=
EXTT10=
EXTT11=
PLAYORDER=
